<svg width="33" height="32" viewBox="0 0 33 32" fill="none" xmlns="http://www.w3.org/2000/svg">
<path d="M12 24.375C13.5833 25.2083 15.0833 25.625 16.5 25.625C17.9167 25.625 19.3958 25.2083 20.9375 24.375C22.5208 23.5417 23.7083 22.5208 24.5 21.3125C24.4583 20.1458 23.5208 19.1667 21.6875 18.375C19.8542 17.5833 18.125 17.1875 16.5 17.1875C14.875 17.1875 13.1458 17.5833 11.3125 18.375C9.47917 19.125 8.54167 20.1042 8.5 21.3125C9.29167 22.5208 10.4583 23.5417 12 24.375ZM19.3125 7.875C18.5208 7.08333 17.5833 6.6875 16.5 6.6875C15.4167 6.6875 14.4792 7.08333 13.6875 7.875C12.8958 8.66667 12.5 9.60417 12.5 10.6875C12.5 11.7708 12.8958 12.7083 13.6875 13.5C14.4792 14.2917 15.4167 14.6875 16.5 14.6875C17.5833 14.6875 18.5208 14.2917 19.3125 13.5C20.1042 12.7083 20.5 11.7708 20.5 10.6875C20.5 9.60417 20.1042 8.66667 19.3125 7.875ZM7.0625 6.625C9.6875 4 12.8333 2.6875 16.5 2.6875C20.1667 2.6875 23.2917 4 25.875 6.625C28.5 9.20833 29.8125 12.3333 29.8125 16C29.8125 19.6667 28.5 22.8125 25.875 25.4375C23.2917 28.0208 20.1667 29.3125 16.5 29.3125C12.8333 29.3125 9.6875 28.0208 7.0625 25.4375C4.47917 22.8125 3.1875 19.6667 3.1875 16C3.1875 12.3333 4.47917 9.20833 7.0625 6.625Z" fill="#888888"/>
</svg>
