<svg width="24" height="36" viewBox="0 0 24 36" fill="none" xmlns="http://www.w3.org/2000/svg">
<path d="M17.0156 15V12.9844H6.98438V15H17.0156ZM17.0156 18.9844V17.0156H6.98438V18.9844H17.0156ZM14.0156 23.0156V21H6.98438V23.0156H14.0156ZM12.7031 9.28125C12.5156 9.09375 12.2812 9 12 9C11.7188 9 11.4844 9.09375 11.2969 9.28125C11.1094 9.46875 11.0156 9.70312 11.0156 9.98438C11.0156 10.2656 11.1094 10.5156 11.2969 10.7344C11.4844 10.9219 11.7188 11.0156 12 11.0156C12.2812 11.0156 12.5156 10.9219 12.7031 10.7344C12.8906 10.5156 12.9844 10.2656 12.9844 9.98438C12.9844 9.70312 12.8906 9.46875 12.7031 9.28125ZM18.9844 9C19.5156 9 19.9844 9.20312 20.3906 9.60938C20.7969 10.0156 21 10.4844 21 11.0156V24.9844C21 25.5156 20.7969 25.9844 20.3906 26.3906C19.9844 26.7969 19.5156 27 18.9844 27H5.01562C4.48438 27 4.01562 26.7969 3.60938 26.3906C3.20312 25.9844 3 25.5156 3 24.9844V11.0156C3 10.4844 3.20312 10.0156 3.60938 9.60938C4.01562 9.20312 4.48438 9 5.01562 9H9.1875C9.40625 8.40625 9.76562 7.92188 10.2656 7.54688C10.7656 7.17188 11.3438 6.98438 12 6.98438C12.6562 6.98438 13.2344 7.17188 13.7344 7.54688C14.2344 7.92188 14.5938 8.40625 14.8125 9H18.9844Z" fill="#81FE88"/>
</svg>
