<svg width="33" height="32" viewBox="0 0 33 32" fill="none" xmlns="http://www.w3.org/2000/svg">
<path d="M21.8125 4L28.5 10.6875V25.3125C28.5 26.0625 28.2292 26.7083 27.6875 27.25C27.1875 27.75 26.5625 28 25.8125 28H7.1875C6.4375 28 5.79167 27.75 5.25 27.25C4.75 26.7083 4.5 26.0625 4.5 25.3125V6.6875C4.5 5.9375 4.75 5.3125 5.25 4.8125C5.79167 4.27083 6.4375 4 7.1875 4H21.8125ZM9.8125 9.3125V12H16.5V9.3125H9.8125ZM23.1875 22.6875V20H9.8125V22.6875H23.1875ZM23.1875 17.3125V14.6875H9.8125V17.3125H23.1875ZM20.5 12H25.8125L20.5 6.6875V12Z" fill="#888888"/>
</svg>
