<svg width="34" height="32" viewBox="0 0 34 32" fill="none" xmlns="http://www.w3.org/2000/svg">
<path fill-rule="evenodd" clip-rule="evenodd" d="M17.0134 0C8.00843 0 0.72876 7.33333 0.72876 16.4057C0.72876 23.6577 5.39309 29.7963 11.8638 31.969C12.6728 32.1323 12.9691 31.616 12.9691 31.1817C12.9691 30.8013 12.9424 29.4977 12.9424 28.1393C8.41243 29.1173 7.46909 26.1837 7.46909 26.1837C6.74109 24.2823 5.66243 23.7937 5.66243 23.7937C4.17976 22.7887 5.77043 22.7887 5.77043 22.7887C7.41509 22.8973 8.27809 24.4727 8.27809 24.4727C9.73376 26.9713 12.0794 26.2653 13.0231 25.8307C13.1578 24.7713 13.5894 24.038 14.0478 23.6307C10.4348 23.2503 6.63343 21.838 6.63343 15.5363C6.63343 13.7437 7.28009 12.277 8.30476 11.1363C8.14309 10.729 7.57676 9.04467 8.46676 6.79033C8.46676 6.79033 9.84176 6.35567 12.9421 8.47433C14.2695 8.11522 15.6383 7.93254 17.0134 7.931C18.3884 7.931 19.7901 8.12133 21.0844 8.47433C24.1851 6.35567 25.5601 6.79033 25.5601 6.79033C26.4501 9.04467 25.8834 10.729 25.7218 11.1363C26.7734 12.277 27.3934 13.7437 27.3934 15.5363C27.3934 21.838 23.5921 23.223 19.9521 23.6307C20.5454 24.1467 21.0574 25.1243 21.0574 26.6727C21.0574 28.8727 21.0308 30.6383 21.0308 31.1813C21.0308 31.616 21.3274 32.1323 22.1361 31.9693C28.6068 29.796 33.2711 23.6577 33.2711 16.4057C33.2978 7.33333 25.9914 0 17.0134 0Z" fill="white"/>
</svg>
