<svg width="33" height="32" viewBox="0 0 33 32" fill="none" xmlns="http://www.w3.org/2000/svg">
<path d="M17.8125 12V9.3125H15.1875V12H17.8125ZM17.8125 22.6875V14.6875H15.1875V22.6875H17.8125ZM7.0625 6.625C9.6875 4 12.8333 2.6875 16.5 2.6875C20.1667 2.6875 23.2917 4 25.875 6.625C28.5 9.20833 29.8125 12.3333 29.8125 16C29.8125 19.6667 28.5 22.8125 25.875 25.4375C23.2917 28.0208 20.1667 29.3125 16.5 29.3125C12.8333 29.3125 9.6875 28.0208 7.0625 25.4375C4.47917 22.8125 3.1875 19.6667 3.1875 16C3.1875 12.3333 4.47917 9.20833 7.0625 6.625Z" fill="#888888"/>
</svg>
